<?xml version="1.0" encoding="utf-8"?>
<svg version="1.1" xmlns:xlink="http://www.w3.org/1999/xlink" width="16px" height="16px" viewBox="776 324  16 16" xmlns="http://www.w3.org/2000/svg">
  <path d="M 784 324  C 788.48 324  792 327.52  792 332  C 792 336.48  788.48 340  784 340  C 779.52 340  776 336.48  776 332  C 776 327.52  779.52 324  784 324  Z " fill-rule="nonzero" fill="#ffffff" stroke="none" />
  <path d="M 784 324.5  C 788.2 324.5  791.5 327.8  791.5 332  C 791.5 336.2  788.2 339.5  784 339.5  C 779.8 339.5  776.5 336.2  776.5 332  C 776.5 327.8  779.8 324.5  784 324.5  Z " stroke-width="1" stroke="#8c8c8c" fill="none" />
  <path d="M 784 336  C 781.76 336  780 334.24  780 332  C 780 329.76  781.76 328  784 328  C 786.24 328  788 329.76  788 332  C 788 334.24  786.24 336  784 336  " fill-rule="nonzero" fill="#8c8c8c" stroke="none" />
</svg>