<?xml version="1.0" encoding="utf-8"?>
<svg version="1.1" xmlns:xlink="http://www.w3.org/1999/xlink" width="16px" height="16px" viewBox="776 275  16 16" xmlns="http://www.w3.org/2000/svg">
  <path d="M 784 275  C 788.48 275  792 278.52  792 283  C 792 287.48  788.48 291  784 291  C 779.52 291  776 287.48  776 283  C 776 278.52  779.52 275  784 275  Z " fill-rule="nonzero" fill="#f0f0f0" stroke="none" />
  <path d="M 784 275.5  C 788.2 275.5  791.5 278.8  791.5 283  C 791.5 287.2  788.2 290.5  784 290.5  C 779.8 290.5  776.5 287.2  776.5 283  C 776.5 278.8  779.8 275.5  784 275.5  Z " stroke-width="1" stroke="#8c8c8c" fill="none" />
  <path d="M 784 287  C 781.76 287  780 285.24  780 283  C 780 280.76  781.76 279  784 279  C 786.24 279  788 280.76  788 283  C 788 285.24  786.24 287  784 287  " fill-rule="nonzero" fill="#8c8c8c" stroke="none" />
</svg>