<?xml version="1.0" encoding="utf-8"?>
<svg version="1.1" xmlns:xlink="http://www.w3.org/1999/xlink" width="24px" height="19px" xmlns="http://www.w3.org/2000/svg">
  <g transform="matrix(1 0 0 1 -204 -412 )">
    <path d="M 11.1928251121076 14.04  L 11.9461883408072 14.04  L 13.5067264573991 12.4977272727273  L 11.4618834080717 10.4768181818182  L 9.9013452914798 12.0190909090909  L 9.9013452914798 12.7636363636364  L 11.1928251121076 12.7636363636364  L 11.1928251121076 14.04  Z M 17.8520179372197 4.90602272727273  C 18.0044843049328 4.75534090909093  18.0089686098655 4.60909090909092  17.865470852018 4.46727272727276  C 17.7219730941704 4.32545454545453  17.5739910313902 4.32988636363638  17.4215246636771 4.48056818181817  L 12.7130044843049 9.13397727272729  C 12.5605381165919 9.28465909090909  12.5560538116592 9.4309090909091  12.6995515695068 9.57272727272726  C 12.8430493273543 9.71454545454549  12.9910313901345 9.71011363636364  13.1434977578475 9.55943181818185  L 17.8520179372197 4.90602272727273  Z M 18.6726457399103 11.9792045454545  C 18.8520179372197 12.0501136363637  18.9417040358744 12.1786363636364  18.9417040358744 12.3647727272727  L 18.9417040358744 14.8909090909091  C 18.9417040358744 15.9456818181819  18.5627802690583 16.8475568181818  17.804932735426 17.5965340909091  C 17.0470852017937 18.3455113636364  16.1345291479821 18.72  15.0672645739911 18.72  L 3.87443946188341 18.72  C 2.80717488789236 18.72  1.89461883408075 18.3455113636364  1.13677130044846 17.5965340909091  C 0.378923766816172 16.8475568181818  0 15.9456818181819  0 14.8909090909091  L 0 3.82909090909089  C 0 2.77431818181816  0.378923766816172 1.8724431818182  1.13677130044846 1.1234659090909  C 1.89461883408075 0.374488636363651  2.80717488789236 0  3.87443946188341 0  L 15.0672645739911 0  C 15.6322869955157 0  16.1569506726457 0.110795454545439  16.6412556053812 0.332386363636374  C 16.7757847533632 0.394431818181829  16.8565022421525 0.49636363636364  16.8834080717489 0.638181818181806  C 16.9103139013453 0.788863636363658  16.8699551569507 0.917386363636354  16.762331838565 1.02375000000001  L 16.1031390134529 1.67522727272728  C 15.9775784753363 1.79931818181819  15.8340807174888 1.83477272727271  15.6726457399103 1.78159090909094  C 15.4663677130045 1.72840909090911  15.2645739910314 1.70181818181817  15.0672645739911 2  L 3.87443946188341 2  C 3.28251121076232 1.70181818181817  2.77578475336321 1.91011363636363  2.35426008968608 2.32670454545456  C 1.93273542600895 2.74329545454543  1.72197309417038 3.24409090909091  2 3.82909090909089  L 2 14.8909090909091  C 1.72197309417038 15.4759090909091  1.93273542600895 15.9767045454545  2.35426008968608 16.3932954545455  C 2.77578475336321 16.8098863636364  3.28251121076232 17.0181818181819  3.87443946188341 17  L 15.0672645739911 17  C 15.6591928251121 17.0181818181819  16.1659192825112 16.8098863636364  16.5874439461883 16.3932954545455  C 17.0089686098655 15.9767045454545  17.219730941704 15.4759090909091  17.219730941704 14.8909090909091  L 17.219730941704 13.2156818181818  C 17.219730941704 13.1004545454546  17.2600896860986 13.0029545454545  17.3408071748879 12.9231818181818  L 18.2017937219731 12.0722727272727  C 18.3363228699552 11.9393181818182  18.4932735426009 11.9082954545455  18.6726457399103 11.9792045454545  Z M 8.60986547085201 11.4872727272727  L 17.6502242152466 2.55272727272728  L 21.52466367713 6.38181818181818  L 12.4843049327354 15.3163636363636  L 8.60986547085201 15.3163636363636  L 8.60986547085201 11.4872727272727  Z M 24 3.40363636363639  C 24 3.75818181818181  23.8744394618834 4.05954545454546  23.6233183856502 4.30772727272728  L 22.3856502242152 5.53090909090912  L 18.5112107623318 1.70181818181817  L 19.7488789237668 0.478636363636383  C 20 0.230454545454563  20.304932735426 0.106363636363653  20.6636771300448 0.106363636363653  C 21.0224215246637 0.106363636363653  21.3273542600897 0.230454545454563  21.5784753363229 0.478636363636383  L 23.6233183856502 2.49954545454546  C 23.8744394618834 2.74772727272727  24 3.04909090909092  24 3.40363636363639  Z " fill-rule="nonzero" fill="#666666" stroke="none" transform="matrix(1 0 0 1 204 412 )" />
  </g>
</svg>